<svg id="Layer_1" data-name="Layer 1" xmlns="http://www.w3.org/2000/svg" viewBox="0 0 1139.93 934.89"><defs><style>.cls-1{fill:#68ba39;}</style></defs><path class="cls-1" d="M1277.66,1224.38,908,862.22c-19-18.61-18-50.11,2.31-70l44.23-43.44c19.8-19.45,51.19-20.49,69.75-2.3l370.46,362.93c30.17,29.56,28.52,79.62-3.67,111.24h0C1358.87,1252.26,1307.84,1254,1277.66,1224.38Z" transform="translate(-410.78 -472.54)"/><path class="cls-1" d="M1408.54,1079.51,1047.69,725.39c-20.06-19.69-20.39-51.58-.71-70.87l25.12-24.64c31-30.35,82.11-29.83,113.68,1.15l339.93,333.59c32.86,32.25,33.39,84.49,1.17,116.09h0C1494.66,1112.3,1441.41,1111.76,1408.54,1079.51Z" transform="translate(-410.78 -472.54)"/><path class="cls-1" d="M1130.57,1364.59,767.4,1008.14c-20.86-20.49-21.35-53.5-1.09-73.38l44-43.12c20-19.6,53.17-19.1,73.75,1.09l363.69,357c33.18,32.56,34,85,1.73,116.64h0C1217.25,1398,1163.74,1397.15,1130.57,1364.59Z" transform="translate(-410.78 -472.54)"/><path d="M565.61,1130.84l110.62-108.15c17-16.64,45.34-15.82,63.27,1.83l55.67,54.79c15.92,15.66,16.57,40.34,1.47,55.1L682.56,1245.94c-30.65,30-81.68,28.5-114-3.29h0C536.29,1210.87,535,1160.8,565.61,1130.84Z" transform="translate(-410.78 -472.54)"/><path d="M437.5,985.79,934.66,498.68c34.24-33.54,88.2-35,120.53-3.25h0c32.33,31.76,30.78,84.69-3.45,118.23L554.58,1100.77c-34.24,33.54-88.2,35-120.53,3.24h0C401.72,1072.26,403.26,1019.33,437.5,985.79Z" transform="translate(-410.78 -472.54)"/><path d="M702.65,1270.15l112.49-110c17.31-16.93,45.87-16.34,63.8,1.3l55.68,54.78c15.92,15.67,16.37,40.54,1,55.57l-116,113.46c-31.17,30.48-82.63,29.43-114.93-2.35h0C672.39,1351.11,671.48,1300.63,702.65,1270.15Z" transform="translate(-410.78 -472.54)"/></svg>